<?xml version="1.0" encoding="UTF-8" standalone="no"?>
<!DOCTYPE svg PUBLIC "-//W3C//DTD SVG 1.1//EN" "http://www.w3.org/Graphics/SVG/1.1/DTD/svg11.dtd">
<svg width="165px" height="380px" version="1.1" xmlns="http://www.w3.org/2000/svg" xmlns:xlink="http://www.w3.org/1999/xlink" xml:space="preserve" xmlns:serif="http://www.serif.com/" style="fill-rule:evenodd;clip-rule:evenodd;stroke-linejoin:round;stroke-miterlimit:2;">
    <g id="Artboard1" transform="matrix(1.27315,0,0,1.04323,0,-3.70631e-15)">
        <rect x="0" y="0" width="129.6" height="364.252" style="fill:rgb(202,200,200);"/>
        <clipPath id="_clip1">
            <rect x="0" y="0" width="129.6" height="364.252"/>
        </clipPath>
        <g clip-path="url(#_clip1)">
            <g id="Module" transform="matrix(0.753707,0,0,0.918833,5.65527,1.47232e-16)">
                <g transform="matrix(1.27371,0,0,1.04323,-7.53282,-1.1699e-14)">
                    <rect x="0" y="0" width="135" height="380" style="fill:rgb(230,230,230);"/>
                </g>
                <g transform="matrix(1.04212,0,0,1.04323,1.17451e-14,-34.8593)">
                    <g transform="matrix(12,0,0,12,50.0858,54.8759)">
                        <path d="M0.55,-0.213c-0.009,0.073 -0.035,0.128 -0.076,0.166c-0.041,0.038 -0.094,0.057 -0.157,0.057c-0.083,-0 -0.148,-0.032 -0.193,-0.095c-0.045,-0.063 -0.067,-0.15 -0.067,-0.262c-0,-0.113 0.023,-0.201 0.068,-0.266c0.046,-0.065 0.11,-0.097 0.192,-0.097c0.062,0 0.113,0.019 0.152,0.056c0.039,0.038 0.064,0.096 0.073,0.173l-0.093,-0c-0.015,-0.097 -0.059,-0.145 -0.132,-0.145c-0.053,-0 -0.095,0.025 -0.124,0.074c-0.029,0.049 -0.044,0.118 -0.044,0.205c-0,0.088 0.015,0.155 0.044,0.202c0.03,0.047 0.071,0.071 0.124,0.071c0.075,-0 0.122,-0.046 0.14,-0.139l0.093,-0Z" style="fill-rule:nonzero;"/>
                    </g>
                    <g transform="matrix(12,0,0,12,57.2858,54.8759)">
                        <path d="M0.476,-0.7l0.098,0l-0.219,0.7l-0.112,-0l-0.217,-0.7l0.098,0l0.172,0.57l0.008,0l0.172,-0.57Z" style="fill-rule:nonzero;"/>
                    </g>
                    <g transform="matrix(12,0,0,12,71.6858,54.8759)">
                        <path d="M0.325,-0.615l0.252,0.261l0,0.008l-0.252,0.261l-0.055,-0.056l0.172,-0.17l-0.419,-0l0,-0.078l0.419,-0l-0.172,-0.17l0.055,-0.056Z" style="fill-rule:nonzero;"/>
                    </g>
                    <g transform="matrix(12,0,0,12,86.0858,54.8759)">
                        <path d="M0.301,0.01c-0.076,0 -0.136,-0.032 -0.181,-0.095c-0.045,-0.063 -0.067,-0.152 -0.067,-0.265c0,-0.112 0.022,-0.2 0.067,-0.264c0.044,-0.064 0.104,-0.096 0.181,-0.096c0.075,0 0.135,0.032 0.18,0.096c0.045,0.064 0.067,0.152 0.067,0.264c0,0.112 -0.022,0.2 -0.067,0.264c-0.045,0.064 -0.105,0.096 -0.18,0.096Zm-0,-0.084c0.049,0 0.087,-0.024 0.114,-0.071c0.028,-0.048 0.042,-0.116 0.042,-0.205c0,-0.089 -0.014,-0.157 -0.041,-0.204c-0.028,-0.048 -0.066,-0.072 -0.115,-0.072c-0.049,0 -0.088,0.024 -0.116,0.072c-0.028,0.047 -0.042,0.115 -0.042,0.204c-0,0.089 0.014,0.157 0.042,0.205c0.028,0.047 0.067,0.071 0.116,0.071Z" style="fill-rule:nonzero;"/>
                    </g>
                    <g transform="matrix(12,0,0,12,93.2858,54.8759)">
                        <path d="M0.527,-0.182c0,0.063 -0.021,0.11 -0.064,0.143c-0.043,0.033 -0.098,0.049 -0.166,0.049c-0.072,-0 -0.129,-0.019 -0.171,-0.056c-0.042,-0.037 -0.065,-0.088 -0.07,-0.154l0.09,-0c0.005,0.043 0.021,0.075 0.047,0.097c0.026,0.023 0.061,0.034 0.105,0.034c0.04,-0 0.073,-0.009 0.1,-0.028c0.026,-0.018 0.039,-0.046 0.039,-0.083c0,-0.021 -0.004,-0.04 -0.012,-0.056c-0.008,-0.015 -0.021,-0.028 -0.038,-0.039c-0.017,-0.011 -0.033,-0.019 -0.045,-0.024c-0.014,-0.005 -0.032,-0.012 -0.055,-0.019l-0.026,-0.008c-0.025,-0.009 -0.047,-0.017 -0.065,-0.025c-0.017,-0.008 -0.036,-0.019 -0.056,-0.034c-0.02,-0.015 -0.035,-0.033 -0.046,-0.055c-0.011,-0.023 -0.016,-0.048 -0.016,-0.077c-0,-0.058 0.021,-0.105 0.064,-0.14c0.042,-0.035 0.095,-0.053 0.159,-0.053c0.065,0 0.118,0.019 0.159,0.056c0.041,0.036 0.064,0.084 0.067,0.142l-0.086,0c-0.004,-0.035 -0.018,-0.063 -0.042,-0.086c-0.024,-0.022 -0.056,-0.033 -0.097,-0.033c-0.04,0 -0.072,0.011 -0.097,0.031c-0.025,0.021 -0.037,0.048 -0.037,0.081c-0,0.015 0.003,0.028 0.01,0.04c0.007,0.013 0.013,0.022 0.019,0.029c0.007,0.007 0.018,0.014 0.035,0.022c0.017,0.007 0.028,0.012 0.034,0.014c0.006,0.002 0.019,0.006 0.039,0.013l0.023,0.008c0.015,0.005 0.026,0.008 0.033,0.011c0.008,0.003 0.02,0.008 0.036,0.015c0.016,0.007 0.029,0.014 0.038,0.021c0.01,0.007 0.021,0.016 0.034,0.027c0.013,0.011 0.024,0.023 0.031,0.035c0.007,0.013 0.014,0.028 0.019,0.045c0.005,0.018 0.008,0.037 0.008,0.057Z" style="fill-rule:nonzero;"/>
                    </g>
                    <g transform="matrix(12,0,0,12,100.486,54.8759)">
                        <path d="M0.55,-0.213c-0.009,0.073 -0.035,0.128 -0.076,0.166c-0.041,0.038 -0.094,0.057 -0.157,0.057c-0.083,-0 -0.148,-0.032 -0.193,-0.095c-0.045,-0.063 -0.067,-0.15 -0.067,-0.262c-0,-0.113 0.023,-0.201 0.068,-0.266c0.046,-0.065 0.11,-0.097 0.192,-0.097c0.062,0 0.113,0.019 0.152,0.056c0.039,0.038 0.064,0.096 0.073,0.173l-0.093,-0c-0.015,-0.097 -0.059,-0.145 -0.132,-0.145c-0.053,-0 -0.095,0.025 -0.124,0.074c-0.029,0.049 -0.044,0.118 -0.044,0.205c-0,0.088 0.015,0.155 0.044,0.202c0.03,0.047 0.071,0.071 0.124,0.071c0.075,-0 0.122,-0.046 0.14,-0.139l0.093,-0Z" style="fill-rule:nonzero;"/>
                    </g>
                </g>
            </g>
        </g>
    </g>
</svg>
